<svg xmlns="http://www.w3.org/2000/svg" xmlns:xlink="http://www.w3.org/1999/xlink" width="613" zoomAndPan="magnify" viewBox="0 0 459.75 377.999986" height="504" preserveAspectRatio="xMidYMid meet" version="1.2"><defs><clipPath id="6c621d5b80"><path d="M 298 35 L 299 35 L 299 36 L 298 36 Z M 298 35 "/></clipPath><clipPath id="4766a91b85"><path d="M 298.726562 35.378906 L 298.613281 35.648438 C 298.703125 35.695312 298.792969 35.761719 298.882812 35.804688 Z M 298.726562 35.378906 "/></clipPath><clipPath id="c9606f5380"><path d="M 173 33 L 380 33 L 380 367 L 173 367 Z M 173 33 "/></clipPath><clipPath id="77d15e71c4"><path d="M 297.445312 34.078125 C 297.355469 34.03125 297.265625 33.964844 297.175781 33.917969 L 268.414062 110.113281 L 201.972656 286.207031 L 173.191406 362.445312 C 185.257812 365.050781 197.773438 366.441406 210.625 366.441406 C 223.925781 366.441406 236.890625 364.914062 249.382812 362.128906 L 296.523438 235.515625 L 297.289062 233.46875 L 297.402344 233.785156 L 330.410156 319.820312 C 352.742188 299.371094 369.820312 273.308594 379.4375 243.871094 Z M 297.445312 34.078125 "/></clipPath><clipPath id="6232d42de1"><path d="M 338 262 L 427 262 L 427 361 L 338 361 Z M 338 262 "/></clipPath><clipPath id="9afbc80159"><path d="M 426.421875 360.847656 L 387.816406 262.074219 C 377.976562 290.992188 360.898438 316.605469 338.699219 336.671875 L 347.957031 360.847656 Z M 426.421875 360.847656 "/></clipPath><clipPath id="3daf13d18d"><path d="M 33 11 L 284 11 L 284 358.515625 L 33 358.515625 Z M 33 11 "/></clipPath><clipPath id="a9d953c29a"><path d="M 112.929688 188.890625 C 112.929688 134.917969 156.675781 91.171875 210.625 91.171875 C 226.578125 91.171875 241.632812 95.011719 254.910156 101.800781 L 283.222656 26.910156 C 261.070312 16.933594 236.488281 11.335938 210.625 11.335938 C 112.726562 11.335938 33.070312 90.992188 33.070312 188.890625 C 33.070312 268.453125 85.671875 335.929688 157.933594 358.421875 L 186.246094 283.488281 C 144.09375 272.65625 112.929688 234.4375 112.929688 188.890625 "/></clipPath></defs><g id="fb28ac5155"><g clip-rule="nonzero" clip-path="url(#6c621d5b80)"><g clip-rule="nonzero" clip-path="url(#4766a91b85)"><path style=" stroke:none;fill-rule:nonzero;fill:#ffb81d;fill-opacity:1;" d="M 21.835938 0.101562 L 437.773438 0.101562 L 437.773438 377.691406 L 21.835938 377.691406 Z M 21.835938 0.101562 "/></g></g><g clip-rule="nonzero" clip-path="url(#c9606f5380)"><g clip-rule="nonzero" clip-path="url(#77d15e71c4)"><path style=" stroke:none;fill-rule:nonzero;fill:#ffb81d;fill-opacity:1;" d="M 21.835938 0.101562 L 437.773438 0.101562 L 437.773438 377.691406 L 21.835938 377.691406 Z M 21.835938 0.101562 "/></g></g><g clip-rule="nonzero" clip-path="url(#6232d42de1)"><g clip-rule="nonzero" clip-path="url(#9afbc80159)"><path style=" stroke:none;fill-rule:nonzero;fill:#000000;fill-opacity:1;" d="M 21.835938 0.101562 L 437.773438 0.101562 L 437.773438 377.691406 L 21.835938 377.691406 Z M 21.835938 0.101562 "/></g></g><g clip-rule="nonzero" clip-path="url(#3daf13d18d)"><g clip-rule="nonzero" clip-path="url(#a9d953c29a)"><path style=" stroke:none;fill-rule:nonzero;fill:#000000;fill-opacity:1;" d="M 21.835938 0.101562 L 437.773438 0.101562 L 437.773438 377.691406 L 21.835938 377.691406 Z M 21.835938 0.101562 "/></g></g></g></svg>